<?xml version="1.0" standalone="no"?>
<!DOCTYPE svg PUBLIC "-//W3C//DTD SVG 20010904//EN"
 "http://www.w3.org/TR/2001/REC-SVG-20010904/DTD/svg10.dtd">
<svg version="1.0" xmlns="http://www.w3.org/2000/svg"
 width="512.000000pt" height="512.000000pt" viewBox="0 0 512.000000 512.000000"
 preserveAspectRatio="xMidYMid meet">

<g transform="translate(0.000000,512.000000) scale(0.100000,-0.100000)"
fill="#fff" stroke="none">
<path d="M1830 5000 c-541 -60 -1030 -375 -1294 -832 l-28 -48 32 0 c44 0 96
-27 121 -62 l21 -29 36 58 c82 132 227 298 347 396 119 96 314 201 469 252
215 70 219 70 1026 70 666 0 733 -2 825 -19 216 -40 453 -142 620 -266 150
-112 305 -281 396 -432 19 -32 37 -58 41 -58 4 0 9 9 13 20 9 30 60 61 111 68
l45 7 -45 72 c-225 364 -579 632 -991 747 -208 59 -201 59 -965 61 -388 2
-739 -1 -780 -5z"/>
<path d="M1755 4105 c-39 -8 -112 -35 -165 -61 -79 -39 -110 -62 -181 -133
-69 -69 -94 -103 -127 -171 -65 -134 -74 -178 -79 -411 -6 -231 4 -333 41
-440 35 -100 81 -172 161 -254 77 -79 156 -129 267 -171 66 -25 88 -28 241
-32 l168 -4 21 27 c12 15 40 36 62 46 38 17 72 19 406 19 359 0 366 -1 405
-23 47 -26 85 -92 85 -147 0 -20 -9 -53 -20 -75 -11 -22 -20 -41 -20 -43 0 -1
307 -1 683 0 680 3 682 3 737 25 119 49 203 140 240 260 16 51 20 93 20 194
l0 129 -42 0 -43 0 51 30 c61 34 98 76 130 145 23 48 24 59 24 312 0 238 -2
267 -20 316 -25 67 -88 132 -159 166 -50 23 -67 25 -165 24 -59 -1 -110 -4
-112 -6 -3 -2 5 -25 16 -51 28 -67 67 -217 81 -315 7 -52 10 -144 6 -245 -4
-133 -10 -181 -34 -273 l-29 -113 48 0 48 0 0 -117 c-1 -155 -26 -213 -113
-260 -29 -16 -76 -18 -537 -20 -497 -2 -504 -2 -445 16 234 68 405 234 482
466 25 75 27 94 31 317 5 261 -5 345 -55 462 -77 184 -234 327 -430 394 l-78
27 -765 2 c-619 1 -778 -1 -835 -12z m396 -423 c126 -60 176 -156 115 -217
-47 -47 -98 -45 -161 5 -79 63 -159 62 -254 -1 -32 -21 -68 -39 -79 -39 -97 0
-139 106 -70 177 77 80 166 114 293 110 77 -3 99 -8 156 -35z m1160 1 c85 -42
141 -99 142 -146 2 -60 -44 -107 -105 -107 -11 0 -47 18 -79 39 -95 63 -175
64 -254 1 -63 -50 -114 -52 -161 -5 -52 52 -20 139 71 195 74 46 135 61 231
57 78 -2 100 -7 155 -34z m-889 -693 c47 -39 78 -50 138 -50 60 0 91 11 138
50 50 41 102 41 143 1 23 -23 29 -38 29 -72 0 -37 -6 -48 -43 -84 -116 -111
-292 -135 -444 -60 -91 45 -133 91 -133 146 0 31 7 47 29 70 41 40 93 40 143
-1z"/>
<path d="M279 3830 c-114 -14 -199 -72 -246 -168 l-28 -57 0 -275 c0 -269 1
-276 24 -323 13 -26 47 -69 77 -96 74 -68 135 -83 314 -79 l135 3 -52 18 c-70
24 -144 92 -174 159 -22 50 -24 66 -27 284 -2 139 1 254 7 290 14 76 67 155
129 195 26 16 47 35 47 42 0 15 -109 18 -206 7z"/>
<path d="M2273 1843 c-4 -16 -7 -59 -7 -98 l-1 -70 33 1 c17 0 152 1 298 2
l267 2 -6 78 c-9 124 23 112 -298 112 l-279 0 -7 -27z"/>
<path d="M2459 1460 c-199 -24 -399 -120 -534 -254 -232 -232 -318 -567 -228
-888 l16 -58 96 -31 c167 -53 458 -109 572 -109 l29 0 0 283 c0 264 1 284 20
315 59 96 201 96 260 0 19 -31 20 -51 20 -315 l0 -283 38 0 c54 0 287 36 384
59 45 11 126 33 179 50 l96 31 16 58 c58 210 38 438 -54 631 -99 210 -269 370
-481 454 -124 50 -299 73 -429 57z m179 -204 c31 -16 74 -61 91 -93 6 -12 11
-45 11 -73 0 -57 -10 -81 -49 -123 -38 -42 -73 -57 -131 -57 -28 0 -63 6 -78
14 -31 16 -74 61 -91 93 -15 30 -14 119 3 151 15 29 59 73 91 90 28 16 121 15
153 -2z"/>
</g>
</svg>
